Coordinates
version=1
nRows=22
nColumns=24
inDegrees=yes

Units are S.I. units (second, meters, Newtons, ...)
Angles are in degrees.

endheader
time	pelvis_tilt	pelvis_list	pelvis_rotation	pelvis_tx	pelvis_ty	pelvis_tz	hip_flexion_r	hip_adduction_r	hip_rotation_r	knee_angle_r	ankle_angle_r	subtalar_angle_r	mtp_angle_r	hip_flexion_l	hip_adduction_l	hip_rotation_l	knee_angle_l	ankle_angle_l	subtalar_angle_l	mtp_angle_l	lumbar_extension	lumbar_bending	lumbar_rotation
      1.10833333	     -0.84091788	     -4.18870690	     -3.55300384	     -0.13457705	      1.05332079	      0.34409146	    -13.18638620	      8.78533617	      2.80904361	     -5.82868567	      5.64835926	     -9.43064935	      7.47938540	     20.20848167	     -2.31934732	     -6.92206269	      6.38514898	      1.49546963	     -1.63136322	      6.91008313	      3.00567403	      8.62481887	      2.44166315
      1.11250000	     -0.84572309	     -4.21157913	     -3.53296077	     -0.12889260	      1.05286264	      0.34395432	    -13.30417035	      8.78814094	      2.82343572	     -6.24084952	      5.62955454	     -9.43237024	      7.48129101	     20.18435568	     -2.27280713	     -6.81464374	      6.22581007	      1.53806463	     -1.53032185	      6.89507254	      3.04051083	      8.62151406	      2.44378426
      1.11666667	     -0.84305002	     -4.22759986	     -3.51260973	     -0.12317941	      1.05243958	      0.34383070	    -13.41601151	      8.78524392	      2.82915952	     -6.67956766	      5.60205488	     -9.43039032	      7.48373949	     20.15262739	     -2.22296410	     -6.69325338	      6.00229345	      1.57366323	     -1.43484517	      6.88115073	      3.07062049	      8.61276627	      2.44722647
      1.12083333	     -0.83807170	     -4.24852017	     -3.38702241	     -0.11743836	      1.05198387	      0.34354512	    -13.51210918	      8.80912968	      2.65786458	     -7.13787142	      5.55534429	     -9.37314643	      7.49600065	     20.14257445	     -2.14531936	     -6.42885704	      5.69381742	      1.72377102	     -1.15072154	      6.82437691	      2.99667301	      8.65024317	      2.43922404
      1.12500000	     -0.81587410	     -4.25061188	     -3.38860764	     -0.11162844	      1.05165021	      0.34349433	    -13.62248979	      8.78528746	      2.69016399	     -7.62843858	      5.50900565	     -9.36147697	      7.49937055	     20.07946624	     -2.09685781	     -6.34181909	      5.37933350	      1.70441258	     -1.11833523	      6.81311175	      3.07003895	      8.61264567	      2.44639917
      1.12916667	     -0.79738369	     -4.24857227	     -3.39968367	     -0.10580273	      1.05133849	      0.34344624	    -13.70599785	      8.75429206	      2.68876032	     -8.16108408	      5.44677278	     -9.34584692	      7.50327984	     20.01128436	     -2.05160000	     -6.21741239	      5.03723838	      1.66677181	     -1.08352149	      6.80291711	      3.11721217	      8.56987652	      2.45486261
      1.13333333	     -0.78051305	     -4.24399079	     -3.40364740	     -0.09995731	      1.05105402	      0.34339635	    -13.76719567	      8.72188956	      2.65022646	     -8.73391850	      5.36376462	     -9.31861151	      7.50835691	     19.94139611	     -2.00412806	     -6.06960841	      4.66961868	      1.60435544	     -1.05605369	      6.79229406	      3.15160769	      8.52088924	      2.46636555
      1.13750000	     -0.79304471	     -4.23721486	     -3.28152507	     -0.09404862	      1.05068723	      0.34304292	    -13.76460036	      8.70668612	      2.31091379	     -9.33975832	      5.14060530	     -9.13236485	      7.53283045	     19.92083366	     -1.90099931	     -5.74878115	      4.27074160	      1.37935143	     -1.09000459	      6.74915078	      3.06432794	      8.49936075	      2.47916445
      1.14166667	     -0.74297150	     -4.22267642	     -3.29383275	     -0.08815401	      1.05050864	      0.34302951	    -13.83275770	      8.65891057	      2.31410652	     -9.96824938	      5.06646491	     -9.09945083	      7.53984109	     19.79510344	     -1.85396177	     -5.60252774	      3.88093592	      1.30109463	     -1.10852857	      6.74044959	      3.16471345	      8.44794449	      2.49277523
      1.14583333	     -0.73578672	     -4.16611898	     -3.15780136	     -0.08202330	      1.05024096	      0.34247554	    -13.82034504	      8.56467322	      1.84186205	    -10.63722318	      4.84909094	     -8.51170556	      7.65894810	     19.66903741	     -1.68228561	     -4.90361129	      3.60322575	      0.71344227	     -1.93244904	      6.61572988	      3.24746509	      8.44962682	      2.48079176
      1.15000000	     -0.73757406	     -4.14450665	     -3.16143453	     -0.07611843	      1.05005118	      0.34239053	    -13.76983357	      8.50601954	      1.69587002	    -11.37957961	      4.72984515	     -8.47864247	      7.68698592	     19.60025517	     -1.62252205	     -4.80445561	      3.18958665	      0.52836500	     -2.05627068	      6.59138838	      3.19336585	      8.32471853	      2.48689967
      1.15416667	     -0.69917979	     -4.10180714	     -3.06129059	     -0.07007888	      1.04991351	      0.34208762	    -13.75387982	      8.43493321	      1.38981207	    -12.11461109	      4.40939166	     -8.21461101	      7.75899557	     19.47133406	     -1.49948804	     -4.50776614	      2.82829484	     -0.00818597	     -2.39965371	      6.54100148	      3.27087360	      8.24439305	      2.51269177
      1.15833333	     -0.65276382	     -4.06111514	     -3.12032404	     -0.06409612	      1.04990324	      0.34211556	    -13.72205016	      8.33599427	      1.34395585	    -12.92894760	      4.30716352	     -8.19805676	      7.77121218	     19.29302196	     -1.45107256	     -4.35324621	      2.48668166	     -0.11766645	     -2.42469151	      6.53532772	      3.33342565	      8.17223107	      2.52254568
      1.16250000	     -0.63533596	     -3.98330481	     -2.98084245	     -0.05794583	      1.04979710	      0.34163786	    -13.62877221	      8.21598594	      0.84182580	    -13.74713541	      3.82628885	     -7.76287193	      7.86234132	     19.17451561	     -1.27039041	     -4.05992868	      2.14487002	     -0.88799928	     -2.96528162	      6.49180826	      3.34162192	      8.02978802	      2.56651179
      1.16666667	     -0.62590672	     -3.89303880	     -2.93926278	     -0.05179635	      1.04977297	      0.34121096	    -13.49532270	      8.04543591	      0.44598863	    -14.64842051	      3.51597314	     -7.33084598	      8.00840761	     19.00701339	     -1.10901592	     -3.62552548	      1.88372548	     -1.55134107	     -3.76155660	      6.44608744	      3.36818661	      7.91381447	      2.58111565
      1.17083333	     -0.58879369	     -3.80216328	     -2.91397429	     -0.04564512	      1.04982693	      0.34088140	    -13.37551999	      7.87188420	      0.12606461	    -15.58061605	      3.20101256	     -7.02912793	      8.15329250	     18.80920562	     -0.96372799	     -3.30344770	      1.61224400	     -2.07720931	     -4.28458392	      6.41395716	      3.40296897	      7.81252639	      2.58681904
      1.17500000	     -0.51582621	     -3.73769798	     -2.97291303	     -0.03964212	      1.05000516	      0.34087186	    -13.26607868	      7.72455778	      0.02666457	    -16.57920679	      3.05481728	     -7.00810926	      8.17130002	     18.57749852	     -0.90196830	     -3.15933185	      1.30407011	     -2.20029340	     -4.28381962	      6.41168429	      3.46586168	      7.73253862	      2.59530554
      1.17916667	     -0.49718982	     -3.57001465	     -2.90036269	     -0.03323138	      1.05010519	      0.34029209	    -13.08476107	      7.44313196	     -0.48177349	    -17.55401422	      2.31896761	     -6.35910930	      8.37384175	     18.36502816	     -0.64667364	     -2.74968347	      1.10575653	     -3.17196405	     -4.99000066	      6.37875265	      3.53926121	      7.57343102	      2.62817849
      1.18333333	     -0.48485031	     -3.45349849	     -2.89802695	     -0.02710227	      1.05024151	      0.33996631	    -12.84089832	      7.21844009	     -0.85314968	    -18.66061335	      2.04937679	     -6.24271710	      8.43794070	     18.21720395	     -0.48945776	     -2.70129645	      0.76562961	     -3.41279806	     -5.18026706	      6.37195547	      3.43148371	      7.42123623	      2.63596229
      1.18750000	     -0.38449976	     -3.32852662	     -2.82266362	     -0.02099875	      1.05050105	      0.33927292	    -12.66802011	      6.95430458	     -1.31535538	    -19.77179781	      1.51881526	     -5.54319074	      8.92191013	     17.92182328	     -0.28090140	     -2.06667633	      0.56932929	     -4.36100395	     -6.60144352	      6.33802023	      3.47271270	      7.28334807	      2.61831595
      1.19166667	     -0.32417347	     -3.16979457	     -2.79391622	     -0.01474252	      1.05077244	      0.33892065	    -12.44511655	      6.66840624	     -1.68716516	    -20.89731048	      0.86711549	     -5.23090028	      9.12357736	     17.69723239	     -0.08141501	     -1.94489948	      0.27896337	     -4.78699042	     -6.65694608	      6.32985208	      3.52044731	      7.07489592	      2.64464296
      1.19583333	     -0.26364757	     -3.02482952	     -2.74508298	     -0.00860727	      1.05104429	      0.33851091	    -12.18101490	      6.39233762	     -2.08759875	    -22.08654031	      0.25205738	     -4.91568387	      9.26867325	     17.50489613	      0.11093290	     -1.90229983	     -0.06979318	     -5.15472725	     -6.81738102	      6.32213254	      3.48255558	      6.84602559	      2.67269932
